<svg width="20" height="22" viewBox="0 0 20 22" fill="none" xmlns="http://www.w3.org/2000/svg">
<path d="M2.57102 18.2216C2.00852 18.2216 1.52557 18.0227 1.12216 17.625C0.724432 17.2216 0.525568 16.7386 0.525568 16.1761C0.525568 15.6193 0.724432 15.142 1.12216 14.7443C1.52557 14.3466 2.00852 14.1477 2.57102 14.1477C3.11648 14.1477 3.59375 14.3466 4.00284 14.7443C4.41193 15.142 4.61648 15.6193 4.61648 16.1761C4.61648 16.5511 4.51989 16.8949 4.3267 17.2074C4.1392 17.5142 3.89205 17.7614 3.58523 17.9489C3.27841 18.1307 2.94034 18.2216 2.57102 18.2216ZM2.57102 9.05114C2.00852 9.05114 1.52557 8.85227 1.12216 8.45455C0.724432 8.05682 0.525568 7.57386 0.525568 7.00568C0.525568 6.44886 0.724432 5.97443 1.12216 5.58239C1.52557 5.18466 2.00852 4.98579 2.57102 4.98579C3.11648 4.98579 3.59375 5.18466 4.00284 5.58239C4.41193 5.97443 4.61648 6.44886 4.61648 7.00568C4.61648 7.38636 4.51989 7.73295 4.3267 8.04545C4.1392 8.35227 3.89205 8.59659 3.58523 8.77841C3.27841 8.96023 2.94034 9.05114 2.57102 9.05114ZM19.2713 11.0028C19.2713 13.1222 18.9872 15.071 18.419 16.8494C17.8565 18.6278 16.9929 20.2756 15.8281 21.7926H12.3594C12.8026 21.2301 13.2145 20.5426 13.5952 19.7301C13.9759 18.9176 14.3082 18.0312 14.5923 17.071C14.8764 16.1051 15.098 15.1051 15.2571 14.071C15.4162 13.0369 15.4957 12.0142 15.4957 11.0028C15.4957 9.65625 15.3565 8.2983 15.0781 6.92898C14.8054 5.55398 14.4304 4.28125 13.9531 3.11079C13.4815 1.93466 12.9503 0.971591 12.3594 0.221591L15.8281 0.221591C16.9929 1.73864 17.8565 3.38636 18.419 5.16477C18.9872 6.94318 19.2713 8.8892 19.2713 11.0028Z" fill="#9C2BAD"/>
</svg>
